# xmcd
#
# Track frame offsets:
#	150
#	16600
#	31509
#	45227
#	66263
#	83088
#	100479
#	119406
#	134450
#	165865
#	181405
#	200120
#	225038
#	248306
#
# Disc length: 3527 seconds
#
# Revision: 2
# Processed by: cddbd v1.5.1PL0 Copyright (c) Steve Scherf et al.
# Submitted via: audiograbber 1.83.01
#
DISCID=9b0dc50e
DTITLE=Eric Clapton - Walkin' Blues
DYEAR=2003
DGENRE=Blues
TTITLE0=Walkin' Blues
TTITLE1=Everybody Oughta Make A Change
TTITLE2=Blow Wind Blow
TTITLE3=Before You Accuse Me (Take A Look At Yourself)
TTITLE4=Alberta
TTITLE5=Mean Old World
TTITLE6=Rollin' and Tumblin'
TTITLE7=San Francisco Bay Blues
TTITLE8=Meet Me (Down At The Bottom)
TTITLE9=Singin' The Blues
TTITLE10=Little Rachel
TTITLE11=Ain't That Loving You
TTITLE12=Bad Influence
TTITLE13=Malted Milk
EXTD=
EXTT0=
EXTT1=
EXTT2=
EXTT3=
EXTT4=
EXTT5=
EXTT6=
EXTT7=
EXTT8=
EXTT9=
EXTT10=
EXTT11=
EXTT12=
EXTT13=
PLAYORDER=
